<svg width="100" height="100" viewBox="0 0 100 100" fill="none" xmlns="http://www.w3.org/2000/svg">
<path d="M100 50C100 56.5661 98.7067 63.0679 96.194 69.1342L50 50H100Z" fill="#FFCC00"/>
<path d="M96.194 69.1342C93.6812 75.2005 89.9983 80.7124 85.3553 85.3553L50 50L96.194 69.1342Z" fill="#EE2200"/>
<path d="M85.3553 85.3553C80.7124 89.9983 75.2005 93.6812 69.1342 96.194L50 50L85.3553 85.3553Z" fill="#66CC33"/>
<path d="M69.1342 96.194C63.0679 98.7067 56.5661 100 50 100L50 50L69.1342 96.194Z" fill="#2266CC"/>
<path d="M50 100C43.4339 100 36.9321 98.7067 30.8658 96.194L50 50L50 100Z" fill="#FFCC00"/>
<path d="M30.8658 96.194C24.7995 93.6812 19.2876 89.9983 14.6447 85.3553L50 50L30.8658 96.194Z" fill="#EE2200"/>
<path d="M14.6447 85.3553C10.0017 80.7124 6.31876 75.2004 3.80602 69.1342L50 50L14.6447 85.3553Z" fill="#66CC33"/>
<path d="M3.80602 69.1342C1.29329 63.0679 -1.97686e-06 56.5661 -2.18557e-06 50L50 50L3.80602 69.1342Z" fill="#2266CC"/>
<path d="M-4.37114e-06 50C-4.94517e-06 43.4339 1.29328 36.9321 3.80602 30.8658L50 50L-4.37114e-06 50Z" fill="#FFCC00"/>
<path d="M3.80602 30.8658C6.31875 24.7996 10.0017 19.2876 14.6447 14.6447L50 50L3.80602 30.8658Z" fill="#EE2200"/>
<path d="M14.6447 14.6447C19.2876 10.0017 24.7995 6.31876 30.8658 3.80603L50 50L14.6447 14.6447Z" fill="#66CC33"/>
<path d="M30.8658 3.80603C36.9321 1.29329 43.4339 5.44089e-06 50 4.37114e-06L50 50L30.8658 3.80603Z" fill="#2266CC"/>
<path d="M50 -2.18557e-06C56.5661 -2.47258e-06 63.0679 1.29329 69.1342 3.80602L50 50L50 -2.18557e-06Z" fill="#FFCC00"/>
<path d="M69.1342 3.80602C75.2004 6.31876 80.7124 10.0017 85.3553 14.6447L50 50L69.1342 3.80602Z" fill="#EE2200"/>
<path d="M85.3553 14.6447C89.9983 19.2876 93.6812 24.7995 96.194 30.8658L50 50L85.3553 14.6447Z" fill="#66CC33"/>
<path d="M96.194 30.8658C98.7067 36.9321 100 43.4339 100 50L50 50L96.194 30.8658Z" fill="#2266CC"/>
</svg>
