<svg width="176" height="120" viewBox="0 0 176 120" fill="none" xmlns="http://www.w3.org/2000/svg">
<circle cx="18" cy="74" r="10" fill="#EE2200"/>
<circle cx="46" cy="74" r="10" fill="#EE2200"/>
<circle cx="74" cy="74" r="10" fill="#EE2200"/>
<circle cx="102" cy="74" r="10" fill="#EE2200"/>
<circle cx="130" cy="74" r="10" fill="#EE2200"/>
<circle cx="158" cy="74" r="10" fill="#EE2200"/>
<circle cx="18" cy="18" r="10" fill="#2266CC"/>
<circle cx="46" cy="18" r="10" fill="#2266CC"/>
<circle cx="74" cy="18" r="10" fill="#2266CC"/>
<circle cx="102" cy="18" r="10" fill="#2266CC"/>
<circle cx="130" cy="18" r="10" fill="#2266CC"/>
<circle cx="158" cy="18" r="10" fill="#2266CC"/>
<circle cx="18" cy="46" r="10" fill="#FFCC00"/>
<circle cx="46" cy="46" r="10" fill="#FFCC00"/>
<circle cx="74" cy="46" r="10" fill="#FFCC00"/>
<circle cx="102" cy="46" r="10" fill="#FFCC00"/>
<circle cx="130" cy="46" r="10" fill="#FFCC00"/>
<circle cx="158" cy="46" r="10" fill="#FFCC00"/>
<circle cx="18" cy="102" r="10" fill="#66CC33"/>
<circle cx="46" cy="102" r="10" fill="#66CC33"/>
<circle cx="74" cy="102" r="10" fill="#66CC33"/>
<circle cx="102" cy="102" r="10" fill="#66CC33"/>
<circle cx="130" cy="102" r="10" fill="#66CC33"/>
<circle cx="158" cy="102" r="10" fill="#66CC33"/>
</svg>
